<svg xmlns="http://www.w3.org/2000/svg" width="1820" height="855" viewBox="0 0 1820 855">
<defs><style><![CDATA[.title{font:800 28px "Segoe UI",Arial,sans-serif; fill:#0F172A; letter-spacing:1px;}.head{font:800 16px "Segoe UI",Arial,sans-serif; fill:#FFFFFF; letter-spacing:1.8px;}.txt{font:11pt "Segoe UI",Arial,sans-serif; fill:#0F172A;}.foot{font:10.5pt "Segoe UI",Arial,sans-serif; fill:#334155;}]]></style></defs>
<rect x="0" y="0" width="1820" height="855" fill="#FFFFFF"/>
<text x="44" y="58" class="title">INITIATIVE</text>
<rect x="44" y="82" width="530" height="729" rx="12" fill="#F8FAFC" stroke="#CBD5E1"/>
<rect x="622" y="82" width="530" height="729" rx="12" fill="#F8FAFC" stroke="#CBD5E1"/>
<rect x="1200" y="82" width="530" height="729" rx="12" fill="#F8FAFC" stroke="#CBD5E1"/>
<rect x="762.0" y="22" width="250" height="44" rx="10" fill="#0F172A"/>
<text x="887.0" y="50" text-anchor="middle" class="head">OUTPUT</text>
<rect x="1340.0" y="22" width="250" height="44" rx="10" fill="#0F172A"/>
<text x="1465.0" y="50" text-anchor="middle" class="head">OUTCOME</text>
<rect x="74.0" y="102" width="470" height="62" rx="10" fill="#FFFFFF" stroke="#94A3B8"/>
<rect x="652.0" y="102" width="470" height="62" rx="10" fill="#FFFFFF" stroke="#94A3B8"/>
<rect x="1230.0" y="102" width="470" height="62" rx="10" fill="#FFFFFF" stroke="#94A3B8"/>
<text x="309.0" y="137.5" text-anchor="middle" class="txt">Vertical integration across the value chain</text>
<text x="887.0" y="137.5" text-anchor="middle" class="txt">Stronger operational control</text>
<text x="1465.0" y="127.0" text-anchor="middle" class="txt"><tspan font-weight="800">Outcome A:</tspan> <tspan>Stable supply &amp; affordability</tspan></text>
<text x="1465.0" y="148.0" text-anchor="middle" class="txt"><tspan font-weight="800">Outcome C:</tspan> <tspan>Trust &amp; safety oversight</tspan></text>
<line x1="566" y1="133.0" x2="630" y2="133.0" stroke="#475569" stroke-width="3.8"/>
<polygon points="630,133.0 612,123.0 612,143.0" fill="#475569"/>
<line x1="1144" y1="133.0" x2="1208" y2="133.0" stroke="#475569" stroke-width="3.8"/>
<polygon points="1208,133.0 1190,123.0 1190,143.0" fill="#475569"/>
<rect x="74.0" y="180" width="470" height="62" rx="10" fill="#FFFFFF" stroke="#94A3B8"/>
<rect x="652.0" y="180" width="470" height="62" rx="10" fill="#FFFFFF" stroke="#94A3B8"/>
<rect x="1230.0" y="180" width="470" height="62" rx="10" fill="#FFFFFF" stroke="#94A3B8"/>
<text x="309.0" y="215.5" text-anchor="middle" class="txt">Supplier sustainability survey</text>
<text x="887.0" y="215.5" text-anchor="middle" class="txt">Supplier ESG baseline + engagement priorities</text>
<text x="1465.0" y="205.0" text-anchor="middle" class="txt"><tspan font-weight="800">Outcome C:</tspan> <tspan>Upstream consistency, reliability &amp; trust</tspan></text>
<text x="1465.0" y="226.0" text-anchor="middle" class="txt"><tspan font-weight="800">Outcome A:</tspan> <tspan>Fewer upstream disruptions</tspan></text>
<line x1="566" y1="211.0" x2="630" y2="211.0" stroke="#475569" stroke-width="3.8"/>
<polygon points="630,211.0 612,201.0 612,221.0" fill="#475569"/>
<line x1="1144" y1="211.0" x2="1208" y2="211.0" stroke="#475569" stroke-width="3.8"/>
<polygon points="1208,211.0 1190,201.0 1190,221.0" fill="#475569"/>
<rect x="74.0" y="258" width="470" height="62" rx="10" fill="#FFFFFF" stroke="#94A3B8"/>
<rect x="652.0" y="258" width="470" height="62" rx="10" fill="#FFFFFF" stroke="#94A3B8"/>
<rect x="1230.0" y="258" width="470" height="62" rx="10" fill="#FFFFFF" stroke="#94A3B8"/>
<text x="309.0" y="293.5" text-anchor="middle" class="txt">Farmer training</text>
<text x="887.0" y="293.5" text-anchor="middle" class="txt">Improved husbandry routines and management skills</text>
<text x="1465.0" y="283.0" text-anchor="middle" class="txt"><tspan font-weight="800">Outcome A:</tspan> <tspan>Stable farm output</tspan></text>
<text x="1465.0" y="304.0" text-anchor="middle" class="txt"><tspan font-weight="800">Outcome B:</tspan> <tspan>Productivity-linked livelihood gains</tspan></text>
<line x1="566" y1="289.0" x2="630" y2="289.0" stroke="#475569" stroke-width="3.8"/>
<polygon points="630,289.0 612,279.0 612,299.0" fill="#475569"/>
<line x1="1144" y1="289.0" x2="1208" y2="289.0" stroke="#475569" stroke-width="3.8"/>
<polygon points="1208,289.0 1190,279.0 1190,299.0" fill="#475569"/>
<rect x="74.0" y="336" width="470" height="62" rx="10" fill="#FFFFFF" stroke="#94A3B8"/>
<rect x="652.0" y="336" width="470" height="62" rx="10" fill="#FFFFFF" stroke="#94A3B8"/>
<rect x="1230.0" y="336" width="470" height="62" rx="10" fill="#FFFFFF" stroke="#94A3B8"/>
<text x="309.0" y="361.0" text-anchor="middle" class="txt">Agricultural extension services + local technical</text>
<text x="309.0" y="382.0" text-anchor="middle" class="txt">sessions</text>
<text x="887.0" y="371.5" text-anchor="middle" class="txt">Recurring knowledge transfer and troubleshooting</text>
<text x="1465.0" y="361.0" text-anchor="middle" class="txt"><tspan font-weight="800">Outcome A:</tspan> <tspan>Better adoption &amp; production stability</tspan></text>
<text x="1465.0" y="382.0" text-anchor="middle" class="txt"><tspan font-weight="800">Outcome B:</tspan> <tspan>Capability-driven income stability</tspan></text>
<line x1="566" y1="367.0" x2="630" y2="367.0" stroke="#475569" stroke-width="3.8"/>
<polygon points="630,367.0 612,357.0 612,377.0" fill="#475569"/>
<line x1="1144" y1="367.0" x2="1208" y2="367.0" stroke="#475569" stroke-width="3.8"/>
<polygon points="1208,367.0 1190,357.0 1190,377.0" fill="#475569"/>
<rect x="74.0" y="414" width="470" height="83" rx="10" fill="#FFFFFF" stroke="#94A3B8"/>
<rect x="652.0" y="414" width="470" height="83" rx="10" fill="#FFFFFF" stroke="#94A3B8"/>
<rect x="1230.0" y="414" width="470" height="83" rx="10" fill="#FFFFFF" stroke="#94A3B8"/>
<text x="309.0" y="449.5" text-anchor="middle" class="txt">Closed-house transition + capital/documentation</text>
<text x="309.0" y="470.5" text-anchor="middle" class="txt">guidance</text>
<text x="887.0" y="449.5" text-anchor="middle" class="txt">System upgrades + better chicken health,</text>
<text x="887.0" y="470.5" text-anchor="middle" class="txt">productivity, climate adaptability</text>
<text x="1465.0" y="439.0" text-anchor="middle" class="txt"><tspan font-weight="800">Outcome C:</tspan> <tspan>Product safety</tspan></text>
<text x="1465.0" y="460.0" text-anchor="middle" class="txt"><tspan font-weight="800">Outcome A:</tspan> <tspan>Higher, steadier output</tspan></text>
<text x="1465.0" y="481.0" text-anchor="middle" class="txt"><tspan font-weight="800">Outcome B:</tspan> <tspan>Improved livelihoods</tspan></text>
<line x1="566" y1="455.5" x2="630" y2="455.5" stroke="#475569" stroke-width="3.8"/>
<polygon points="630,455.5 612,445.5 612,465.5" fill="#475569"/>
<line x1="1144" y1="455.5" x2="1208" y2="455.5" stroke="#475569" stroke-width="3.8"/>
<polygon points="1208,455.5 1190,445.5 1190,465.5" fill="#475569"/>
<rect x="74.0" y="513" width="470" height="62" rx="10" fill="#FFFFFF" stroke="#94A3B8"/>
<rect x="652.0" y="513" width="470" height="62" rx="10" fill="#FFFFFF" stroke="#94A3B8"/>
<rect x="1230.0" y="513" width="470" height="62" rx="10" fill="#FFFFFF" stroke="#94A3B8"/>
<text x="309.0" y="548.5" text-anchor="middle" class="txt">Profit-sharing + price floors</text>
<text x="887.0" y="548.5" text-anchor="middle" class="txt">Downside protection with upside participation</text>
<text x="1465.0" y="538.0" text-anchor="middle" class="txt"><tspan font-weight="800">Outcome B:</tspan> <tspan>Lower income volatility</tspan></text>
<text x="1465.0" y="559.0" text-anchor="middle" class="txt"><tspan font-weight="800">Outcome A:</tspan> <tspan>Sustained participation stabilizing supply</tspan></text>
<line x1="566" y1="544.0" x2="630" y2="544.0" stroke="#475569" stroke-width="3.8"/>
<polygon points="630,544.0 612,534.0 612,554.0" fill="#475569"/>
<line x1="1144" y1="544.0" x2="1208" y2="544.0" stroke="#475569" stroke-width="3.8"/>
<polygon points="1208,544.0 1190,534.0 1190,554.0" fill="#475569"/>
<rect x="74.0" y="591" width="470" height="54" rx="10" fill="#FFFFFF" stroke="#94A3B8"/>
<rect x="652.0" y="591" width="470" height="54" rx="10" fill="#FFFFFF" stroke="#94A3B8"/>
<rect x="1230.0" y="591" width="470" height="54" rx="10" fill="#FFFFFF" stroke="#94A3B8"/>
<text x="309.0" y="622.5" text-anchor="middle" class="txt">SAP fleet monitoring</text>
<text x="887.0" y="622.5" text-anchor="middle" class="txt">Improved logistics control and reduced animal stress</text>
<text x="1465.0" y="622.5" text-anchor="middle" class="txt"><tspan font-weight="800">Outcome A:</tspan> <tspan>Reliable delivery/quality and stable supply</tspan></text>
<line x1="566" y1="618.0" x2="630" y2="618.0" stroke="#475569" stroke-width="3.8"/>
<polygon points="630,618.0 612,608.0 612,628.0" fill="#475569"/>
<line x1="1144" y1="618.0" x2="1208" y2="618.0" stroke="#475569" stroke-width="3.8"/>
<polygon points="1208,618.0 1190,608.0 1190,628.0" fill="#475569"/>
<rect x="74.0" y="661" width="470" height="62" rx="10" fill="#FFFFFF" stroke="#94A3B8"/>
<rect x="652.0" y="661" width="470" height="62" rx="10" fill="#FFFFFF" stroke="#94A3B8"/>
<rect x="1230.0" y="661" width="470" height="62" rx="10" fill="#FFFFFF" stroke="#94A3B8"/>
<text x="309.0" y="696.5" text-anchor="middle" class="txt">Barcode traceability system</text>
<text x="887.0" y="696.5" text-anchor="middle" class="txt">End-to-end traceability records</text>
<text x="1465.0" y="686.0" text-anchor="middle" class="txt"><tspan font-weight="800">Outcome C:</tspan> <tspan>Transparency, product safety, consumer</tspan></text>
<text x="1465.0" y="707.0" text-anchor="middle" class="txt">trust</text>
<line x1="566" y1="692.0" x2="630" y2="692.0" stroke="#475569" stroke-width="3.8"/>
<polygon points="630,692.0 612,682.0 612,702.0" fill="#475569"/>
<line x1="1144" y1="692.0" x2="1208" y2="692.0" stroke="#475569" stroke-width="3.8"/>
<polygon points="1208,692.0 1190,682.0 1190,702.0" fill="#475569"/>
<rect x="74.0" y="739" width="470" height="54" rx="10" fill="#FFFFFF" stroke="#94A3B8"/>
<rect x="652.0" y="739" width="470" height="54" rx="10" fill="#FFFFFF" stroke="#94A3B8"/>
<rect x="1230.0" y="739" width="470" height="54" rx="10" fill="#FFFFFF" stroke="#94A3B8"/>
<text x="309.0" y="770.5" text-anchor="middle" class="txt">LCA + rainwater actions</text>
<text x="887.0" y="770.5" text-anchor="middle" class="txt">Hotspot identification and mitigation actions</text>
<text x="1465.0" y="770.5" text-anchor="middle" class="txt"><tspan font-weight="800">Outcome D:</tspan> <tspan>Reduced water use and waste impacts</tspan></text>
<line x1="566" y1="766.0" x2="630" y2="766.0" stroke="#475569" stroke-width="3.8"/>
<polygon points="630,766.0 612,756.0 612,776.0" fill="#475569"/>
<line x1="1144" y1="766.0" x2="1208" y2="766.0" stroke="#475569" stroke-width="3.8"/>
<polygon points="1208,766.0 1190,756.0 1190,776.0" fill="#475569"/>
<text x="44" y="841" class="foot">Word-ready: 11pt body text, centered labels, compact adaptive cards.</text>
</svg>